<svg class="icon" viewBox="0 0 1024 1024" version="1.1" xmlns="http://www.w3.org/2000/svg" width="16" height="16"><path d="M928 256h-64v576c0 70.692-57.308 128-128 128H288c-70.692 0-128-57.308-128-128V256H96c-17.673 0-32-14.327-32-32 0-17.673 14.327-32 32-32h832c17.673 0 32 14.327 32 32 0 17.673-14.327 32-32 32z m-496 96c0-17.673-14.327-32-32-32-17.673 0-32 14.327-32 32v448c0 17.673 14.327 32 32 32 17.673 0 32-14.327 32-32V352z m224 0c0-17.673-14.327-32-32-32-17.673 0-32 14.327-32 32v448c0 17.673 14.327 32 32 32 17.673 0 32-14.327 32-32V352z m16-224H352c-17.673 0-32-14.327-32-32 0-17.673 14.327-32 32-32h320c17.673 0 32 14.327 32 32 0 17.673-14.327 32-32 32z" fill="#8a8a8a"></path></svg>